M48
;DRILL file {KiCad (2016-03-23 BZR 6647, Git bc699c8)-product} date Tue 13 Jun 2017 17:37:51 CEST
;FORMAT={-:-/ absolute / inch / decimal}
FMAT,2
INCH,TZ
T1C0.035
%
G90
G05
M72
T1
X2.437Y-4.7244
X2.537Y-4.7244
X2.637Y-4.7244
X2.737Y-4.7244
X2.837Y-4.7244
X2.937Y-4.7244
X3.037Y-4.7244
X3.137Y-4.7244
X3.237Y-4.7244
X3.337Y-4.7244
X3.437Y-4.7244
X3.537Y-4.7244
X3.637Y-4.7244
X3.737Y-4.7244
X3.837Y-4.7244
X3.937Y-4.7244
X4.037Y-4.7244
X4.137Y-4.7244
X4.237Y-4.7244
X4.337Y-4.7244
X4.437Y-4.7244
X4.537Y-4.7244
X4.637Y-4.7244
X4.737Y-4.7244
X4.837Y-4.7244
X4.937Y-4.7244
X5.037Y-4.7244
X5.137Y-4.7244
X5.237Y-4.7244
X5.337Y-4.7244
X5.437Y-4.7244
X5.537Y-4.7244
X5.5512Y-3.952
X5.5512Y-4.052
X5.5512Y-4.152
X5.5512Y-4.252
X5.5512Y-4.352
X5.5512Y-4.452
T0
M30
